<svg xmlns="http://www.w3.org/2000/svg" width="24" height="24" viewBox="0 0 24 24">
    <path fill="#ea6823" d="M14.34 0H5.67C2.28 0 0 2.38 0 5.92v8.17C0 17.62 2.28 20 5.67 20h8.67c3.39 0 5.66-2.38 5.66-5.91V5.92C20 2.38 17.73 0 14.34 0" opacity="0.4" transform="translate(2 2)"/>
    <path fill="#ea6823" d="M6.29 5.052L4.511 3.274 6.289 1.5A.875.875 0 0 0 5.052.258L3.273 2.036 1.494.256A.875.875 0 1 0 .256 1.494l1.78 1.78L.26 5.049A.875.875 0 0 0 1.5 6.287l1.773-1.776 1.78 1.779A.875.875 0 0 0 6.29 5.052" transform="translate(8.726 8.719)"/>
</svg>
